<?xml version="1.0" encoding="UTF-8" standalone="no"?>
<svg
   xmlns:dc="http://purl.org/dc/elements/1.1/"
   xmlns:cc="http://creativecommons.org/ns#"
   xmlns:rdf="http://www.w3.org/1999/02/22-rdf-syntax-ns#"
   xmlns:svg="http://www.w3.org/2000/svg"
   xmlns="http://www.w3.org/2000/svg"
   version="1.1"
   id="svg2"
   width="500"
   height="500.01074"
   viewBox="0 0 500 500.01074">
  <metadata
     id="metadata8">
    <rdf:RDF>
      <cc:Work
         rdf:about="">
        <dc:format>image/svg+xml</dc:format>
        <dc:type
           rdf:resource="http://purl.org/dc/dcmitype/StillImage" />
        <dc:title></dc:title>
      </cc:Work>
    </rdf:RDF>
  </metadata>
  <defs
     id="defs6" />
  <g
     id="g10"
     transform="translate(0.71603156,-2.812725)">
    <path
       style="fill:#e70000"
       d="m -0.71603156,428.31272 v -74.5 h 16.49999956 16.5 v -101.5 -101.5 h -16.5 -16.49999956 v -73.999995 -74 l 89.25000356,0.04137 89.249998,0.04137 32.94816,52.208634 c 56.22095,89.085951 107.68392,170.164951 108.63886,171.158621 0.55129,0.57364 0.91298,-14.18366 0.91298,-37.25 v -38.2 h -16.5 -16.5 v -73.999995 -74 h 106 106 v 74 73.999995 h -16.5 -16.5 v 101.5 101.5 h 16.5 16.5 v 74.50537 74.50538 l -89.1892,-0.25538 -89.18919,-0.25537 -31.96478,-50.5 C 271.36017,424.03772 239.27031,373.44014 217.63,339.37366 L 178.28397,277.4346 v 38.18906 38.18906 h 16.5 16.5 v 74.5 74.5 h -106 -106.00000156 z m 204.00000156,0 v -66.5 h -16.5 -16.5 v -55.5 c 0,-30.525 0.3375,-55.48817 0.75,-55.47372 0.4125,0.0145 7.22724,10.25196 15.14387,22.75 7.91663,12.49805 42.74499,67.38622 77.39636,121.97372 l 63.00248,99.25 h 82.35365 82.35364 v -66.5 -66.5 h -16.5 -16.5 v -109.5 -109.5 h 16.5 16.5 v -66.499995 -66.5 h -97.5 -97.5 v 66.5 66.499995 h 16 16 v 56.21429 c 0,48.17747 -0.19987,56.00494 -1.39803,54.75 -1.30689,-1.36883 -61.46803,-95.87089 -125.07153,-196.464285 -15.30124,-24.2 -28.3177,-44.538051 -28.92544,-45.195669 -0.83553,-0.904085 -21.16314,-1.269886 -83.355278,-1.5 l -82.2502806,-0.304331 2.79e-4,66.25 2.78e-4,66.249995 h 16.4999996 16.5 v 109.5 109.5 h -16.5 -16.4999996 v 66.5 66.5 h 98.0000016 98 z m -188.000002,0 v -58.5 H 31.121064 46.95816 l 0.662904,-43.66408 c 0.364597,-24.01524 0.662904,-76.89024 0.662904,-117.5 v -73.83592 h -16.5 -16.5 v -57.999995 -58 h 76.356254 76.356258 l 29.34114,46.25 C 280.12441,195.55833 316.52802,252.77711 325.67778,266.78631 l 10.10619,15.4736 0.61247,-24.4736 c 0.33686,-13.46047 0.67436,-46.63609 0.75,-73.72359 l 0.13753,-49.25 h -16.5 -16.5 v -57.999995 -58 h 89.5 89.5 v 58 57.999995 h -16.5 -16.5 l 10e-4,73.25 c 6.8e-4,40.2875 0.29901,93.1625 0.66296,117.5 l 0.66173,44.25 h 15.83704 15.83704 v 58.5 58.5 l -76.25,-0.006 -76.25,-0.006 -20.45233,-32.24446 C 224.25991,318.85941 164.00217,224.16317 163.21647,223.36272 c -0.57682,-0.58765 -0.9325,27.16074 -0.9325,72.75 v 73.7 h 16 16 v 58.5 58.5 h -89.5 -89.500002 z"
       id="path837" />
  </g>
</svg>
